<svg width="24" height="24" viewBox="0 0 24 24" fill="none" xmlns="http://www.w3.org/2000/svg">
<path d="M19.6584 9.89746C19.6584 10.902 19.2887 12.155 18.6536 13.511C18.0244 14.8545 17.1621 16.2414 16.2417 17.4962C15.321 18.7513 14.3556 19.8559 13.5298 20.6389C13.1156 21.0315 12.7501 21.3303 12.4535 21.5261C12.2474 21.6621 12.1167 21.7197 12.0509 21.7438C11.9849 21.7064 11.8915 21.6447 11.7697 21.5524C11.5038 21.3509 11.1568 21.0449 10.7526 20.6476C9.94668 19.8557 8.95548 18.7432 7.99269 17.4848C7.02923 16.2256 6.10685 14.8367 5.42851 13.4926C4.74266 12.1335 4.3416 10.8885 4.3416 9.89746C4.3416 5.66784 7.77038 2.23906 12 2.23906C16.2296 2.23906 19.6584 5.66784 19.6584 9.89746ZM12.12 21.7782C12.12 21.7783 12.118 21.7777 12.1137 21.7759C12.1178 21.7772 12.1199 21.7781 12.12 21.7782Z" stroke="#2B47DA" stroke-width="1.4"/>
<circle cx="12.0007" cy="9.69116" r="3.4521" stroke="#2B47DA" stroke-width="1.4"/>
</svg>
