<svg width="125" height="20" viewBox="0 0 125 20" fill="none" xmlns="http://www.w3.org/2000/svg">
<g clip-path="url(#clip0_215_5622)">
<path d="M8.54152 0C4.04187 0 0.394409 3.54903 0.394409 7.92726C0.394409 10.1156 1.30566 12.097 2.77947 13.5314C4.25369 14.9667 7.72681 17.0436 7.93048 19.2236C7.96102 19.5504 8.20423 19.8181 8.54152 19.8181C8.87881 19.8181 9.12201 19.5504 9.15255 19.2236C9.35623 17.0436 12.8293 14.9667 14.3036 13.5314C15.7774 12.097 16.6886 10.1156 16.6886 7.92726C16.6886 3.54903 13.0412 0 8.54152 0Z" fill="#F73132"/>
<path d="M8.54149 10.7023C10.1163 10.7023 11.393 9.46008 11.393 7.92774C11.393 6.3954 10.1163 5.1532 8.54149 5.1532C6.96665 5.1532 5.69 6.3954 5.69 7.92774C5.69 9.46008 6.96665 10.7023 8.54149 10.7023Z" fill="white"/>
<path d="M30.8992 14.667H33.0507V2.64246H29.9212C26.7739 2.64246 25.1202 4.2169 25.1202 6.53531C25.1202 8.38658 26.027 9.47657 27.6451 10.6012L24.8357 14.667H27.1651L30.2946 10.1167L29.2099 9.40737C27.8941 8.54229 27.254 7.86753 27.254 6.41419C27.254 5.13388 28.1786 4.26881 29.9389 4.26881H30.8992V14.667ZM59.1538 14.0787V12.4005C58.4959 12.8331 57.3934 13.2137 56.362 13.2137C54.8151 13.2137 54.2283 12.5044 54.1394 11.051H59.2427V9.96103C59.2427 6.93324 57.8735 5.79134 55.7575 5.79134C53.1792 5.79134 51.9523 7.71182 51.9523 10.3416C51.9523 13.3694 53.4815 14.8401 56.1842 14.8401C57.5356 14.8401 58.5314 14.494 59.1538 14.0787ZM72.3831 14.8401C73.3611 14.8401 74.0546 14.667 74.5702 14.3037V12.6255C74.0368 12.9887 73.3966 13.2137 72.5076 13.2137C70.9962 13.2137 70.3739 12.0718 70.3739 10.2725C70.3739 8.38658 71.1385 7.41769 72.5254 7.41769C73.3433 7.41769 74.1435 7.69452 74.5702 7.95403V6.20658C74.1257 5.96436 73.3433 5.79134 72.2942 5.79134C69.5914 5.79134 68.1867 7.67721 68.1867 10.3244C68.1867 13.231 69.5559 14.8401 72.3831 14.8401ZM39.7721 5.96436V9.40737H36.9448V5.96436H34.8288V14.667H36.9448V11.0337H39.7721V14.667H41.888V5.96436H39.7721ZM51.4366 13.0407H50.4942V5.96436H44.3241V6.70833C44.3241 8.83642 44.1818 11.5874 43.435 13.0407H42.7772V16.6567H44.7331V14.667H49.4807V16.6567H51.4366V13.0407ZM65.9107 14.667H68.3112L64.9149 9.97827L67.9022 5.96436H65.7684L62.7812 9.97827V5.96436H60.6651V14.667H62.7812V10.3936L65.9107 14.667ZM55.722 7.41769C56.771 7.41769 57.0911 8.26547 57.0911 9.35546V9.52848H54.1394C54.1928 8.14436 54.7084 7.41769 55.722 7.41769ZM48.3783 13.0407H45.391C45.9777 11.7257 46.1378 9.35546 46.1378 7.85023V7.59071H48.3783V13.0407Z" fill="black"/>
<path d="M85.4894 14.667H87.9966L83.5869 8.33467L87.7122 2.64246H85.5783L81.5776 8.17896V2.64246H79.4261V14.667H81.5776V9.02673L85.4894 14.667Z" fill="black"/>
<path d="M95.1311 8.73247C95.1311 6.62168 94.0286 5.82581 91.7882 5.82581C90.3835 5.82581 89.281 6.25835 88.641 6.62168V8.33453C89.2099 7.91929 90.4546 7.46945 91.5393 7.46945C92.5528 7.46945 93.0151 7.81549 93.0151 8.74977V9.23422H92.6772C89.4411 9.23422 88.0008 10.2723 88.0008 12.037C88.0008 13.8018 89.1032 14.788 90.7391 14.788C91.9838 14.788 92.5172 14.39 92.9262 13.9749H93.0151C93.0329 14.1998 93.104 14.4939 93.1751 14.6669H95.2378C95.1667 13.9575 95.1311 13.2481 95.1311 12.5388V8.73247ZM93.0151 12.5908C92.7484 12.9714 92.2505 13.2828 91.5037 13.2828C90.6146 13.2828 90.1701 12.7638 90.1701 11.9851C90.1701 10.9644 90.8991 10.601 92.7129 10.601H93.0151V12.5908Z" fill="black"/>
<path d="M98.7259 5.9644H96.77V17.1758H98.8859V13.6463C99.4193 14.4249 100.202 14.8401 101.109 14.8401C103.171 14.8401 104.594 13.2311 104.594 10.3071C104.594 7.40043 103.207 5.79138 101.215 5.79138C100.22 5.79138 99.4016 6.24122 98.8326 7.089L98.7259 5.9644ZM100.575 13.2137C99.455 13.2137 98.8859 12.3314 98.8859 10.3244C98.8859 8.30011 99.4905 7.41773 100.682 7.41773C101.838 7.41773 102.406 8.30011 102.406 10.3071C102.406 12.3314 101.802 13.2137 100.575 13.2137Z" fill="black"/>
<path d="M111.969 7.5907V5.96436H104.874V7.5907H107.363V14.667H109.479V7.5907H111.969Z" fill="black"/>
<path d="M113.159 5.96436V14.667H116.378C118.458 14.667 119.934 13.629 119.934 11.5874C119.934 9.64958 118.618 8.62879 116.413 8.62879H115.275V5.96436H113.159ZM120.716 5.96436V14.667H122.832V5.96436H120.716ZM116.252 13.0407H115.275V10.2551H116.306C117.213 10.2551 117.746 10.6531 117.746 11.6566C117.746 12.6601 117.16 13.0407 116.252 13.0407Z" fill="black"/>
</g>
<defs>
<clipPath id="clip0_215_5622">
<rect width="124" height="20" fill="white" transform="translate(0.394409)"/>
</clipPath>
</defs>
</svg>
