<svg width="45" height="20" viewBox="0 0 45 20" fill="none" xmlns="http://www.w3.org/2000/svg">
<g clip-path="url(#clip0_215_5617)">
<path fill-rule="evenodd" clip-rule="evenodd" d="M18.7294 9.98646C18.7294 8.86253 18.5127 7.77922 18.1471 6.7907C18.0523 10.0677 14.7076 12.6135 12.7576 14.2926H17.6596C18.3367 13.0197 18.7294 11.5437 18.7294 9.98646ZM15.1815 2.76893C14.7482 2.6606 14.2607 2.59289 13.7462 2.59289C10.415 2.59289 8.66816 5.13866 9.25044 8.3615H11.5795C11.3764 5.58553 12.4868 4.922 13.6243 4.922C15.0732 4.922 15.3982 5.99177 15.3982 6.83133C15.3982 9.10627 12.9472 11.4489 8.95253 14.929L8.96607 16.879H15.6013C13.9899 18.3008 11.8775 19.1675 9.56189 19.1675C4.49743 19.1675 0.394409 15.0645 0.394409 10C0.394409 4.93554 4.49743 0.83252 9.56189 0.83252C11.6879 0.83252 13.6243 1.55021 15.1815 2.76893Z" fill="#24B349"/>
<path fill-rule="evenodd" clip-rule="evenodd" d="M27.3437 7.65946H29.5187C29.5867 6.0597 29.0293 3.52893 25.4405 3.52893C22.8032 3.52893 20.8864 5.05001 20.8864 8.23642C20.8864 8.66914 20.9 10.8983 20.9 12.2752C20.9 15.7238 23.3741 16.4713 25.4541 16.4713C26.7047 16.4713 28.4992 16.1959 29.342 15.3173V9.82307H25.2501V11.8162H27.0718V14.2421C25.6988 14.6879 23.1838 14.8715 23.1838 11.8162V8.22331C23.1838 6.08592 24.2034 5.35161 25.3453 5.35161C26.5144 5.36472 27.3437 5.94168 27.3437 7.65946ZM43.5343 12.9964C43.6295 8.07907 37.784 9.71817 37.8384 6.96448C37.852 5.99414 38.5045 5.36472 39.5648 5.36472C40.6932 5.36472 41.3729 6.00725 41.3457 7.6988H43.4936C43.5479 6.17771 43.1809 3.56827 39.6464 3.56827C37.4577 3.56827 35.6497 4.60418 35.6089 6.92514C35.5138 11.6457 41.4 10.0984 41.3049 12.957C41.2641 14.1241 40.3941 14.6486 39.4017 14.6486C38.2462 14.6486 37.3218 14.0061 37.4985 12.0654H35.337C35.0923 14.6355 36.2614 16.4581 39.3745 16.4581C41.9982 16.4581 43.4936 15.0551 43.5343 12.9964ZM33.7057 16.3008H31.5171V3.73874H33.7057V16.3008Z" fill="black"/>
</g>
<defs>
<clipPath id="clip0_215_5617">
<rect width="44" height="20" fill="white" transform="translate(0.394409)"/>
</clipPath>
</defs>
</svg>
