<svg width="161" height="48" viewBox="0 0 161 48" fill="none" xmlns="http://www.w3.org/2000/svg">
<path fill-rule="evenodd" clip-rule="evenodd" d="M18.3614 23.1078H4.79485C2.67507 23.1078 1.7565 22.4719 2.03914 20.2108L4.08826 6.50285C4.15892 5.7256 4.51221 5.019 5.07749 4.45373C5.85474 3.88845 6.77331 3.60582 7.69188 3.67647H20.9052L19.2094 6.57351H9.31705C8.39848 6.57351 7.90386 6.85614 7.76254 7.77472L7.33859 10.8131L7.19727 11.661H17.9375L16.171 14.558H6.84397L6.20804 19.0095C6.13738 19.2922 6.20804 19.5748 6.34936 19.8575C6.77331 20.0694 7.19727 20.1401 7.69188 20.0694H20.1279L18.3614 23.1078ZM43.5162 3.74713L33.4119 21.2C32.7053 22.5425 31.2921 23.3904 29.7376 23.3198C28.1124 23.3198 27.1232 22.6132 26.6993 21.2L21.7531 3.74713H25.9927L29.8789 19.3628C30.0909 19.9988 30.5149 19.8575 30.7975 19.3628L39.2766 3.74713H43.5162ZM46.5545 16.0419L45.4946 23.1078H41.5377L43.9401 7.06812C44.2934 4.80702 45.4946 3.74713 47.7557 3.74713H57.6481C61.8876 3.74713 62.8062 6.00823 62.2409 9.75318C61.7463 13.1448 60.4038 16.1125 56.5175 16.1125H53.8325V16.2538L60.7571 23.1078H55.8109L49.8755 16.8191C49.0276 15.9005 48.321 16.0419 46.5545 16.0419ZM46.9078 13.4275C49.5929 13.4275 52.3486 13.4275 55.0337 13.4275C55.8816 13.4981 56.7295 13.2155 57.2948 12.5796C57.7894 11.8023 58.072 10.8837 58.1427 9.8945C58.3546 8.55197 58.2133 7.70406 57.7894 7.20944C57.1534 6.71483 56.4468 6.50285 55.6696 6.64417H49.3102C48.4623 6.57351 47.7557 7.13878 47.6851 7.98669V8.05735L46.9078 13.4275ZM67.2577 23.1078L69.3775 8.76395L64.9966 11.9436L63.3715 23.0371L67.2577 23.1078ZM74.8183 23.1078H70.8614L73.6877 3.74713H77.6447L76.5848 11.0957C76.6554 11.025 76.7261 11.025 76.7261 10.9544L85.6998 3.74713H90.5753L80.4004 11.661C79.8351 12.0143 79.4111 12.5089 79.1992 13.0742C79.1285 13.6394 79.4111 14.2047 80.1177 14.9113L88.7382 23.0371H83.792L76.3021 15.6179C76.1608 15.4766 76.0195 15.3353 75.9488 15.1939L74.8183 23.1078ZM111.561 23.1078H107.463L106.05 18.2323H96.0161L93.1897 23.1078H89.0208L99.4077 5.7256C100.397 4.10043 101.245 3.53516 103.153 3.53516C104.849 3.53516 105.696 4.02977 106.262 5.7256L111.561 23.1078ZM105.414 15.6179L103.153 7.77472C103.011 7.20944 102.799 6.99746 102.658 6.99746C102.305 7.13878 102.093 7.42142 101.951 7.77472L97.3586 15.6179H105.414Z" fill="#019AAC"/>
<path fill-rule="evenodd" clip-rule="evenodd" d="M68.2068 7.08047L63.8257 10.1896L64.7443 4.04199H68.7014L68.2068 7.08047Z" fill="#F25529"/>
<path d="M4.95943 42.0033C3.61451 42.0033 2.58689 41.5465 1.87655 40.6329C1.16621 39.7096 0.811035 38.3632 0.811035 36.5936C0.811035 34.824 1.16621 33.4824 1.87655 32.5688C2.58689 31.6455 3.61451 31.1839 4.95943 31.1839C6.29487 31.1839 7.31776 31.6455 8.0281 32.5688C8.74791 33.4824 9.10782 34.824 9.10782 36.5936C9.10782 38.3536 8.74791 39.6952 8.0281 40.6184C7.31776 41.5417 6.29487 42.0033 4.95943 42.0033ZM4.95943 41.0368C5.9539 41.0368 6.70686 40.6617 7.21831 39.9116C7.73923 39.1518 7.99969 38.0458 7.99969 36.5936C7.99969 35.1414 7.73923 34.0402 7.21831 33.2901C6.70686 32.5303 5.9539 32.1504 4.95943 32.1504C3.95548 32.1504 3.19778 32.5255 2.68634 33.2757C2.17489 34.0258 1.91917 35.1318 1.91917 36.5936C1.91917 38.0554 2.17489 39.1614 2.68634 39.9116C3.19778 40.6617 3.95548 41.0368 4.95943 41.0368Z" fill="black"/>
<path d="M12.3754 41.8158H11.3525V34.1124H17.1489V41.8158H16.1118V35.0068H12.3754V41.8158Z" fill="black"/>
<path d="M25.0337 41.2387C24.7401 41.4792 24.3801 41.6667 23.9539 41.8014C23.5372 41.9264 23.0968 41.9889 22.6327 41.9889C21.5719 41.9889 20.7432 41.6379 20.1465 40.9358C19.5593 40.2241 19.2657 39.2335 19.2657 37.9641C19.2657 36.6946 19.5404 35.704 20.0897 34.9923C20.639 34.2807 21.4014 33.9248 22.377 33.9248C23.3241 33.9248 24.0629 34.2518 24.5932 34.9058C25.1236 35.5501 25.3888 36.459 25.3888 37.6323C25.3888 37.8631 25.3746 38.0651 25.3462 38.2382H20.3028C20.3407 39.1518 20.5585 39.8442 20.9563 40.3155C21.3636 40.7771 21.9413 41.0079 22.6895 41.0079C23.3809 41.0079 24.0297 40.806 24.6359 40.402L25.0337 41.2387ZM22.3486 34.8625C21.7424 34.8625 21.2689 35.0741 20.9279 35.4972C20.5964 35.9108 20.3975 36.5311 20.3312 37.3582H24.3659C24.3565 36.5696 24.1718 35.9589 23.8119 35.5261C23.4614 35.0837 22.9737 34.8625 22.3486 34.8625Z" fill="black"/>
<path d="M33.4583 38.0218C33.4583 39.272 33.1931 40.2482 32.6627 40.9502C32.1323 41.6523 31.3888 42.0033 30.4323 42.0033C30.0439 42.0033 29.6793 41.9264 29.3383 41.7725C29.0068 41.6186 28.718 41.4022 28.4717 41.1233V44.8019H27.4488V34.1124H28.4007V35.0933C28.6564 34.7086 28.969 34.4201 29.3383 34.2278C29.7172 34.0258 30.1386 33.9248 30.6027 33.9248C31.493 33.9248 32.1892 34.2855 32.6911 35.0068C33.2026 35.7281 33.4583 36.7331 33.4583 38.0218ZM32.3928 38.0218C32.3928 37.012 32.2176 36.2474 31.8671 35.7281C31.5262 35.1991 31.0195 34.9346 30.347 34.9346C29.9776 34.9346 29.6414 35.0116 29.3383 35.1654C29.0352 35.3097 28.7464 35.5453 28.4717 35.8723V40.1568C28.7085 40.4357 29.0021 40.6569 29.3525 40.8204C29.703 40.9743 30.0629 41.0512 30.4323 41.0512C31.0763 41.0512 31.5641 40.7964 31.8956 40.2866C32.227 39.7769 32.3928 39.022 32.3928 38.0218Z" fill="black"/>
<path d="M39.5246 40.8781C39.0321 41.609 38.2697 41.9745 37.2373 41.9745C36.4891 41.9745 35.9019 41.7725 35.4757 41.3686C35.0589 40.9647 34.8506 40.402 34.8506 39.6808C34.8506 38.7671 35.22 38.0939 35.9587 37.6611C36.7069 37.2187 37.8719 36.9927 39.4536 36.9831V36.4494C39.4536 35.9493 39.2973 35.5694 38.9848 35.3097C38.6817 35.0404 38.2365 34.9058 37.6493 34.9058C37.0337 34.9058 36.437 35.0452 35.8593 35.3241L35.5893 34.4442C36.2618 34.0979 36.9863 33.9248 37.763 33.9248C38.5775 33.9248 39.231 34.1316 39.7235 34.5451C40.2255 34.9587 40.4765 35.5646 40.4765 36.3628V41.8158H39.5246V40.8781ZM39.4536 37.8487C38.2318 37.8583 37.332 38.0073 36.7543 38.2959C36.1765 38.5748 35.8877 39.0124 35.8877 39.6086C35.8877 40.0703 36.0203 40.4213 36.2855 40.6617C36.5507 40.9021 36.9437 41.0224 37.4646 41.0224C37.8719 41.0224 38.2365 40.9454 38.5586 40.7915C38.8806 40.6377 39.1789 40.402 39.4536 40.0847V37.8487Z" fill="black"/>
<path d="M49.7109 40.9214V43.9508H48.8869L48.688 41.8158H43.0479V34.1124H44.0708V40.9214H47.5941V34.1124H48.617V40.9214H49.7109Z" fill="black"/>
<path d="M52.6659 40.1135L56.5444 34.1124H57.5673V41.8158H56.5444V35.8002L52.6659 41.8158H51.643V34.1124H52.6659V40.1135Z" fill="black"/>
<path d="M62.8522 42.0033C61.8483 42.0033 61.0716 41.6619 60.5223 40.9791C59.9824 40.2866 59.7125 39.2864 59.7125 37.9785C59.7125 36.6513 59.9824 35.6463 60.5223 34.9635C61.0621 34.271 61.8388 33.9248 62.8522 33.9248C63.8562 33.9248 64.6281 34.271 65.1679 34.9635C65.7078 35.6463 65.9777 36.6465 65.9777 37.9641C65.9777 39.2816 65.7078 40.2866 65.1679 40.9791C64.6281 41.6619 63.8562 42.0033 62.8522 42.0033ZM62.8522 41.0656C63.5247 41.0656 64.0361 40.806 64.3865 40.2866C64.737 39.7577 64.9122 38.9835 64.9122 37.9641C64.9122 36.9446 64.737 36.1753 64.3865 35.6559C64.0361 35.127 63.5247 34.8625 62.8522 34.8625C62.1703 34.8625 61.6541 35.127 61.3037 35.6559C60.9532 36.1753 60.778 36.9495 60.778 37.9785C60.778 38.9883 60.9532 39.7577 61.3037 40.2866C61.6541 40.806 62.1703 41.0656 62.8522 41.0656Z" fill="black"/>
<path d="M73.8199 41.8158H72.797V38.368H69.1458V41.8158H68.1229V34.1124H69.1458V37.4303H72.797V34.1124H73.8199V41.8158Z" fill="black"/>
<path d="M82.1877 41.8158H81.1648V38.368H77.5136V41.8158H76.4908V34.1124H77.5136V37.4303H81.1648V34.1124H82.1877V41.8158Z" fill="black"/>
<path d="M84.8586 34.1124H85.8815V36.8966H87.4158C89.2627 36.8966 90.1861 37.7092 90.1861 39.3345C90.1861 40.1424 89.9257 40.7579 89.4048 41.181C88.8933 41.6042 88.2445 41.8158 87.4584 41.8158H84.8586V34.1124ZM92.3882 34.1124V41.8158H91.3653V34.1124H92.3882ZM85.8815 40.9214H87.4158C87.9367 40.9214 88.3487 40.7915 88.6518 40.5319C88.9643 40.2626 89.1206 39.8635 89.1206 39.3345C89.1206 38.3151 88.5666 37.8054 87.4584 37.8054H85.8815V40.9214Z" fill="black"/>
<path d="M96.082 40.1135L99.9604 34.1124H100.983V41.8158H99.9604V35.8002L96.082 41.8158H95.0591V34.1124H96.082V40.1135ZM98.1704 32.9006C96.8255 32.9006 96.0725 32.2322 95.9115 30.8954H96.6786C96.7544 31.2608 96.9107 31.5349 97.1475 31.7177C97.3937 31.9004 97.7394 31.9918 98.1846 31.9918C98.6013 31.9918 98.9375 31.9004 99.1933 31.7177C99.4584 31.5253 99.6289 31.2512 99.7047 30.8954H100.429C100.353 31.5494 100.121 32.0495 99.7331 32.3957C99.3448 32.7323 98.8239 32.9006 98.1704 32.9006Z" fill="black"/>
<path d="M107.959 41.8158H106.936V34.1124H112.732V41.8158H111.695V35.0068H107.959V41.8158Z" fill="black"/>
<path d="M119.324 40.8781C118.832 41.609 118.069 41.9745 117.037 41.9745C116.289 41.9745 115.702 41.7725 115.275 41.3686C114.859 40.9647 114.65 40.402 114.65 39.6808C114.65 38.7671 115.02 38.0939 115.758 37.6611C116.507 37.2187 117.672 36.9927 119.253 36.9831V36.4494C119.253 35.9493 119.097 35.5694 118.784 35.3097C118.481 35.0404 118.036 34.9058 117.449 34.9058C116.833 34.9058 116.237 35.0452 115.659 35.3241L115.389 34.4442C116.061 34.0979 116.786 33.9248 117.563 33.9248C118.377 33.9248 119.031 34.1316 119.523 34.5451C120.025 34.9587 120.276 35.5646 120.276 36.3628V41.8158H119.324V40.8781ZM119.253 37.8487C118.032 37.8583 117.132 38.0073 116.554 38.2959C115.976 38.5748 115.687 39.0124 115.687 39.6086C115.687 40.0703 115.82 40.4213 116.085 40.6617C116.35 40.9021 116.743 41.0224 117.264 41.0224C117.672 41.0224 118.036 40.9454 118.358 40.7915C118.68 40.6377 118.979 40.402 119.253 40.0847V37.8487Z" fill="black"/>
<path d="M128.857 38.0218C128.857 39.272 128.592 40.2482 128.062 40.9502C127.531 41.6523 126.788 42.0033 125.831 42.0033C125.443 42.0033 125.078 41.9264 124.737 41.7725C124.406 41.6186 124.117 41.4022 123.87 41.1233V44.8019H122.848V34.1124H123.799V35.0933C124.055 34.7086 124.368 34.4201 124.737 34.2278C125.116 34.0258 125.537 33.9248 126.002 33.9248C126.892 33.9248 127.588 34.2855 128.09 35.0068C128.601 35.7281 128.857 36.7331 128.857 38.0218ZM127.792 38.0218C127.792 37.012 127.616 36.2474 127.266 35.7281C126.925 35.1991 126.418 34.9346 125.746 34.9346C125.376 34.9346 125.04 35.0116 124.737 35.1654C124.434 35.3097 124.145 35.5453 123.87 35.8723V40.1568C124.107 40.4357 124.401 40.6569 124.751 40.8204C125.102 40.9743 125.462 41.0512 125.831 41.0512C126.475 41.0512 126.963 40.7964 127.294 40.2866C127.626 39.7769 127.792 39.022 127.792 38.0218Z" fill="black"/>
<path d="M133.233 41.8158H132.21V35.0068H130.093V34.1124H135.364V35.0068H133.233V41.8158Z" fill="black"/>
<path d="M142.822 41.8158H141.799V38.368H138.148V41.8158H137.125V34.1124H138.148V37.4303H141.799V34.1124H142.822V41.8158Z" fill="black"/>
<path d="M150.707 41.2387C150.414 41.4792 150.054 41.6667 149.627 41.8014C149.211 41.9264 148.77 41.9889 148.306 41.9889C147.245 41.9889 146.417 41.6379 145.82 40.9358C145.233 40.2241 144.939 39.2335 144.939 37.9641C144.939 36.6946 145.214 35.704 145.763 34.9923C146.313 34.2807 147.075 33.9248 148.051 33.9248C148.998 33.9248 149.736 34.2518 150.267 34.9058C150.797 35.5501 151.062 36.459 151.062 37.6323C151.062 37.8631 151.048 38.0651 151.02 38.2382H145.976C146.014 39.1518 146.232 39.8442 146.63 40.3155C147.037 40.7771 147.615 41.0079 148.363 41.0079C149.054 41.0079 149.703 40.806 150.309 40.402L150.707 41.2387ZM148.022 34.8625C147.416 34.8625 146.942 35.0741 146.601 35.4972C146.27 35.9108 146.071 36.5311 146.005 37.3582H150.039C150.03 36.5696 149.845 35.9589 149.485 35.5261C149.135 35.0837 148.647 34.8625 148.022 34.8625Z" fill="black"/>
<path d="M159.132 38.0218C159.132 39.272 158.867 40.2482 158.336 40.9502C157.806 41.6523 157.062 42.0033 156.106 42.0033C155.717 42.0033 155.353 41.9264 155.012 41.7725C154.68 41.6186 154.391 41.4022 154.145 41.1233V44.8019H153.122V34.1124H154.074V35.0933C154.33 34.7086 154.642 34.4201 155.012 34.2278C155.391 34.0258 155.812 33.9248 156.276 33.9248C157.167 33.9248 157.863 34.2855 158.365 35.0068C158.876 35.7281 159.132 36.7331 159.132 38.0218ZM158.066 38.0218C158.066 37.012 157.891 36.2474 157.541 35.7281C157.2 35.1991 156.693 34.9346 156.021 34.9346C155.651 34.9346 155.315 35.0116 155.012 35.1654C154.709 35.3097 154.42 35.5453 154.145 35.8723V40.1568C154.382 40.4357 154.676 40.6569 155.026 40.8204C155.376 40.9743 155.736 41.0512 156.106 41.0512C156.75 41.0512 157.238 40.7964 157.569 40.2866C157.901 39.7769 158.066 39.022 158.066 38.0218Z" fill="black"/>
</svg>
