<svg width="292" height="40" viewBox="0 0 292 40" fill="none" xmlns="http://www.w3.org/2000/svg">
<path d="M4.41628 7.36455C4.3345 7.0273 4.34813 6.69005 4.38902 6.5012C4.49806 5.97509 4.85246 5.40851 5.902 5.40851C6.8834 5.40851 7.44225 6.00207 7.44225 6.90589V7.91763H11.5859V6.7575C11.6132 3.18268 8.34186 2.61611 5.99742 2.61611C3.05323 2.60262 0.640633 3.57389 0.190827 6.24489C0.0681525 6.98683 0.0408915 7.63435 0.231718 8.45723C0.954135 11.8027 6.86977 12.774 7.72849 14.8919C7.90569 15.2966 7.83753 15.7957 7.76938 16.1195C7.64671 16.6726 7.25142 17.2392 6.14735 17.2392C5.09781 17.2392 4.48443 16.6456 4.48443 15.7418V14.1635H0V15.4315C0 19.0873 2.93056 20.1934 6.03831 20.1934C9.14606 20.1934 11.5041 19.1817 11.9131 16.4432C12.1039 15.0268 11.9539 14.1095 11.8858 13.7722C11.2043 10.3053 4.87972 9.2936 4.41628 7.37804V7.36455ZM58.4884 7.39153C58.4203 7.08126 58.4476 6.71703 58.4612 6.55515C58.5839 6.02905 58.9246 5.46247 59.9742 5.46247C60.9283 5.46247 61.4872 6.05603 61.4872 6.93287V7.94461H65.5899V6.81146C65.5899 3.25013 62.3868 2.71053 60.0696 2.71053C57.139 2.71053 54.7537 3.65483 54.3039 6.31234C54.1948 7.0273 54.1539 7.67482 54.3448 8.4977C55.0536 11.8027 60.901 12.774 61.7461 14.8784C61.8961 15.2831 61.8552 15.7822 61.7734 16.079C61.6507 16.6321 61.2827 17.1717 60.1786 17.1717C59.1563 17.1717 58.5157 16.5781 58.5157 15.7013V14.123H54.0994V15.3641C54.0994 18.9793 56.9755 20.0855 60.0696 20.0855C63.1637 20.0855 65.4945 19.0738 65.8762 16.3758C66.067 14.9594 65.9171 14.0555 65.8489 13.7183C65.181 10.3053 58.9519 9.2936 58.4884 7.37804V7.39153ZM96.2313 16.3353L92.3193 3.12872H86.1447V19.3571H90.2202L89.9885 5.73227L94.1867 19.3571H100.102V3.12872H95.9996L96.2177 16.3218L96.2313 16.3353ZM17.8014 3.12872L14.7073 19.3888H19.1917L21.5089 4.3563L23.7716 19.4023H28.2288L25.1892 3.12872H17.8014ZM42.9088 3.12872L40.8233 15.9441L38.7242 3.12872H31.9362L31.5682 19.3888H35.7255L35.8346 4.34281L38.697 19.3888H42.8952L45.7576 4.34281L45.8666 19.3888H50.0239L49.6559 3.12872H42.8952H42.9088ZM81.5376 3.12872H77.3394V15.2561C77.3394 15.472 77.3394 15.7013 77.2985 15.8902C77.2168 16.2949 76.876 17.0908 75.7038 17.0908C74.5315 17.0908 74.2044 16.3084 74.1226 15.8902C74.0817 15.7283 74.0817 15.472 74.0817 15.2561V3.12872H69.8835V14.8784C69.8835 15.1752 69.9108 15.8092 69.9244 15.9576C70.2243 19.0063 72.6505 20.0181 75.7038 20.0181C78.757 20.0181 81.2105 19.0333 81.5104 15.9576C81.5376 15.7957 81.5785 15.1752 81.5512 14.8784V3.12872H81.5376ZM110.393 10.3053V12.7065H112.097V15.0808C112.097 15.2966 112.097 15.5259 112.056 15.7148C111.988 16.16 111.566 16.9154 110.352 16.9154C109.139 16.9154 108.73 16.16 108.662 15.7148C108.635 15.5259 108.621 15.2966 108.621 15.0808V7.59388C108.621 7.32408 108.649 7.04079 108.703 6.81146C108.785 6.40677 109.153 5.63784 110.352 5.63784C111.634 5.63784 111.934 6.46073 112.015 6.81146C112.056 7.04079 112.056 7.44549 112.056 7.44549V8.34931H116.241V7.79623C116.241 7.79623 116.268 7.22965 116.214 6.70354C115.9 3.65483 113.31 2.68355 110.366 2.68355C107.422 2.68355 104.9 3.66832 104.532 6.73052C104.491 7.00032 104.45 7.51294 104.45 7.8232V14.7031C104.45 14.9998 104.45 15.2292 104.519 15.7822C104.791 18.777 107.422 19.8292 110.366 19.8292C113.31 19.8292 115.941 18.777 116.214 15.7822C116.254 15.2292 116.282 14.9998 116.282 14.7031V10.3053H110.393Z" fill="black"/>
<path d="M8.21021 31.3313C8.21021 32.3433 7.90901 33.1305 7.3066 33.6927C6.70419 34.247 5.85278 34.5562 4.75238 34.6205V35.8373H3.90901V34.6205C2.82467 34.5482 1.98531 34.2349 1.39093 33.6807C0.804586 33.1184 0.511414 32.3353 0.511414 31.3313C0.511414 30.3273 0.804586 29.5482 1.39093 28.9939C1.98531 28.4317 2.82467 28.1144 3.90901 28.0421V26.8976H4.75238V28.0421C5.85278 28.1064 6.70419 28.4196 7.3066 28.9819C7.90901 29.5361 8.21021 30.3192 8.21021 31.3313ZM4.75238 33.8494C5.56363 33.7851 6.19415 33.5441 6.64395 33.1265C7.09375 32.7008 7.31865 32.1064 7.31865 31.3433C7.31865 30.5803 7.09375 29.9859 6.64395 29.5602C6.19415 29.1265 5.56363 28.8775 4.75238 28.8132V33.8494ZM1.39093 31.3433C1.39093 32.0903 1.6078 32.6767 2.04154 33.1024C2.4833 33.5281 3.10579 33.7731 3.90901 33.8373V28.8253C3.10579 28.8895 2.4833 29.1385 2.04154 29.5723C1.6078 29.998 1.39093 30.5883 1.39093 31.3433Z" fill="black"/>
<path d="M10.8849 34.3072L14.1741 29.2951H15.0415V35.7289H14.1741V30.7048L10.8849 35.7289H10.0174V29.2951H10.8849V34.3072Z" fill="black"/>
<path d="M22.403 32.5602C22.403 33.6044 22.1781 34.4197 21.7283 35.006C21.2785 35.5923 20.648 35.8855 19.8367 35.8855C19.5074 35.8855 19.1982 35.8213 18.909 35.6927C18.6279 35.5642 18.3829 35.3835 18.1741 35.1506V38.2229H17.3066V29.2951H18.1138V30.1144C18.3307 29.7931 18.5958 29.5522 18.909 29.3915C19.2303 29.2229 19.5877 29.1385 19.9813 29.1385C20.7363 29.1385 21.3267 29.4397 21.7524 30.0421C22.1861 30.6445 22.403 31.4839 22.403 32.5602ZM21.4994 32.5602C21.4994 31.7168 21.3508 31.0783 21.0536 30.6445C20.7644 30.2028 20.3347 29.9819 19.7644 29.9819C19.4512 29.9819 19.166 30.0462 18.909 30.1747C18.652 30.2951 18.407 30.4919 18.1741 30.765V34.3433C18.3749 34.5763 18.6239 34.761 18.9211 34.8976C19.2183 35.0261 19.5235 35.0903 19.8367 35.0903C20.3829 35.0903 20.7966 34.8775 21.0777 34.4518C21.3588 34.0261 21.4994 33.3956 21.4994 32.5602Z" fill="black"/>
<path d="M30.5355 35.7289H29.7163V30.5723L27.7163 34.5361H26.9693L25.0295 30.5723V35.7289H24.2223V29.2951H25.2705L27.3548 33.5361L29.4873 29.2951H30.5355V35.7289Z" fill="black"/>
<path d="M37.2223 35.247C36.9733 35.4478 36.6681 35.6044 36.3066 35.7168C35.9532 35.8213 35.5797 35.8735 35.1861 35.8735C34.2865 35.8735 33.5837 35.5803 33.0777 34.9939C32.5797 34.3996 32.3307 33.5723 32.3307 32.512C32.3307 31.4518 32.5636 30.6245 33.0295 30.0301C33.4954 29.4357 34.142 29.1385 34.9693 29.1385C35.7725 29.1385 36.399 29.4116 36.8488 29.9578C37.2986 30.496 37.5235 31.255 37.5235 32.2349C37.5235 32.4277 37.5114 32.5964 37.4874 32.7409H33.2102C33.2424 33.504 33.4271 34.0823 33.7645 34.4759C34.1098 34.8614 34.5998 35.0542 35.2343 35.0542C35.8207 35.0542 36.3709 34.8855 36.8849 34.5482L37.2223 35.247ZM34.9452 29.9217C34.4311 29.9217 34.0295 30.0984 33.7404 30.4518C33.4592 30.7972 33.2906 31.3152 33.2343 32.006H36.656C36.648 31.3474 36.4914 30.8373 36.1861 30.4759C35.889 30.1064 35.4753 29.9217 34.9452 29.9217Z" fill="black"/>
<path d="M44.1018 35.7289H43.2343V32.8494H40.138V35.7289H39.2705V29.2951H40.138V32.0662H43.2343V29.2951H44.1018V35.7289Z" fill="black"/>
<path d="M51.1982 35.7289H50.3307V32.8494H47.2343V35.7289H46.3669V29.2951H47.2343V32.0662H50.3307V29.2951H51.1982V35.7289Z" fill="black"/>
<path d="M53.4633 29.2951H54.3307V31.6205H55.6319C57.1982 31.6205 57.9813 32.2992 57.9813 33.6566C57.9813 34.3313 57.7605 34.8454 57.3187 35.1988C56.885 35.5522 56.3348 35.7289 55.6681 35.7289H53.4633V29.2951ZM59.8488 29.2951V35.7289H58.9813V29.2951H59.8488ZM54.3307 34.9819H55.6319C56.0737 34.9819 56.4231 34.8735 56.6801 34.6566C56.9452 34.4317 57.0777 34.0984 57.0777 33.6566C57.0777 32.8052 56.6078 32.3795 55.6681 32.3795H54.3307V34.9819Z" fill="black"/>
<path d="M62.9813 34.3072L66.2705 29.2951H67.138V35.7289H66.2705V30.7048L62.9813 35.7289H62.1139V29.2951H62.9813V34.3072ZM64.7524 28.2831C63.6119 28.2831 62.9733 27.7249 62.8368 26.6084H63.4874C63.5516 26.9136 63.6842 27.1425 63.885 27.2951C64.0938 27.4478 64.387 27.5241 64.7645 27.5241C65.1179 27.5241 65.403 27.4478 65.6199 27.2951C65.8448 27.1345 65.9894 26.9056 66.0536 26.6084H66.6681C66.6038 27.1546 66.4071 27.5723 66.0777 27.8614C65.7484 28.1425 65.3066 28.2831 64.7524 28.2831Z" fill="black"/>
<path d="M78.4994 35.7289H77.6802V30.5723L75.6801 34.5361H74.9332L72.9934 30.5723V35.7289H72.1862V29.2951H73.2344L75.3187 33.5361L77.4512 29.2951H78.4994V35.7289Z" fill="black"/>
<path d="M84.0898 34.9458C83.6721 35.5562 83.0255 35.8614 82.15 35.8614C81.5155 35.8614 81.0175 35.6927 80.6561 35.3554C80.3026 35.018 80.1259 34.5482 80.1259 33.9458C80.1259 33.1827 80.4392 32.6205 81.0657 32.259C81.7002 31.8895 82.6882 31.7008 84.0296 31.6927V31.247C84.0296 30.8293 83.897 30.512 83.632 30.2951C83.3749 30.0702 82.9974 29.9578 82.4994 29.9578C81.9773 29.9578 81.4713 30.0743 80.9814 30.3072L80.7524 29.5723C81.3227 29.2831 81.9372 29.1385 82.5958 29.1385C83.2866 29.1385 83.8408 29.3112 84.2585 29.6566C84.6842 30.002 84.897 30.508 84.897 31.1747V35.7289H84.0898V34.9458ZM84.0296 32.4156C82.9934 32.4237 82.2304 32.5482 81.7404 32.7891C81.2504 33.0221 81.0055 33.3875 81.0055 33.8855C81.0055 34.2711 81.1179 34.5642 81.3428 34.765C81.5677 34.9658 81.901 35.0662 82.3428 35.0662C82.6882 35.0662 82.9974 35.002 83.2705 34.8735C83.5436 34.745 83.7966 34.5482 84.0296 34.2831V32.4156Z" fill="black"/>
<path d="M87.0778 29.2951H90.8488V30.0421H87.9452V35.7289H87.0778V29.2951Z" fill="black"/>
<path d="M95.6079 34.9458C95.1902 35.5562 94.5436 35.8614 93.6681 35.8614C93.0336 35.8614 92.5356 35.6927 92.1741 35.3554C91.8207 35.018 91.644 34.5482 91.644 33.9458C91.644 33.1827 91.9573 32.6205 92.5838 32.259C93.2183 31.8895 94.2063 31.7008 95.5476 31.6927V31.247C95.5476 30.8293 95.4151 30.512 95.15 30.2951C94.893 30.0702 94.5155 29.9578 94.0175 29.9578C93.4954 29.9578 92.9894 30.0743 92.4994 30.3072L92.2705 29.5723C92.8408 29.2831 93.4553 29.1385 94.1139 29.1385C94.8047 29.1385 95.3589 29.3112 95.7766 29.6566C96.2023 30.002 96.4151 30.508 96.4151 31.1747V35.7289H95.6079V34.9458ZM95.5476 32.4156C94.5115 32.4237 93.7484 32.5482 93.2585 32.7891C92.7685 33.0221 92.5235 33.3875 92.5235 33.8855C92.5235 34.2711 92.636 34.5642 92.8609 34.765C93.0858 34.9658 93.4191 35.0662 93.8609 35.0662C94.2063 35.0662 94.5155 35.002 94.7886 34.8735C95.0617 34.745 95.3147 34.5482 95.5476 34.2831V32.4156Z" fill="black"/>
<path d="M101.005 32.3192C101.841 32.5682 102.258 33.0984 102.258 33.9096C102.258 34.5441 102.022 35.0301 101.548 35.3674C101.074 35.7048 100.451 35.8735 99.6802 35.8735C99.3107 35.8735 98.9533 35.8373 98.6079 35.765C98.2625 35.6927 97.9573 35.5803 97.6922 35.4277L98.0055 34.7289C98.2223 34.8413 98.4713 34.9297 98.7525 34.9939C99.0336 35.0582 99.3067 35.0903 99.5717 35.0903C100.158 35.0903 100.6 34.9899 100.897 34.7891C101.202 34.5803 101.355 34.2711 101.355 33.8614C101.355 33.1546 100.821 32.8012 99.7525 32.8012H98.7645V32.0662H99.7404C100.15 32.0662 100.483 31.9779 100.74 31.8012C101.005 31.6164 101.138 31.3474 101.138 30.9939C101.138 30.6084 101.001 30.3313 100.728 30.1626C100.463 29.9939 100.118 29.9096 99.6922 29.9096C99.2665 29.9096 98.7725 30.0301 98.2103 30.2711L97.9693 29.5482C98.2023 29.4277 98.4834 29.3273 98.8127 29.247C99.1501 29.1666 99.4754 29.1265 99.7886 29.1265C100.447 29.1265 100.981 29.2711 101.391 29.5602C101.809 29.8494 102.018 30.2831 102.018 30.8614C102.018 31.2229 101.929 31.5241 101.752 31.765C101.584 31.998 101.335 32.1827 101.005 32.3192Z" fill="black"/>
<path d="M104.837 34.3072L108.126 29.2951H108.993V35.7289H108.126V30.7048L104.837 35.7289H103.969V29.2951H104.837V34.3072Z" fill="black"/>
<path d="M116.09 35.7289H115.222V32.8494H112.126V35.7289H111.258V29.2951H112.126V32.0662H115.222V29.2951H116.09V35.7289Z" fill="black"/>
<path fill-rule="evenodd" clip-rule="evenodd" d="M170.894 19.61H159.381C157.582 19.61 156.803 19.0703 157.042 17.1514L158.781 5.51848C158.841 4.85888 159.141 4.25924 159.621 3.77953C160.28 3.29982 161.06 3.05996 161.839 3.11993H173.053L171.614 5.57844H163.219C162.439 5.57844 162.019 5.8183 161.899 6.59782L161.54 9.17626L161.42 9.89583H170.534L169.035 12.3543H161.12L160.58 16.1321C160.52 16.3719 160.58 16.6118 160.7 16.8516C161.06 17.0315 161.42 17.0915 161.839 17.0315H172.393L170.894 19.61ZM192.241 3.17989L183.666 17.9909C183.067 19.1302 181.867 19.8498 180.548 19.7898C179.169 19.7898 178.33 19.1902 177.97 17.9909L173.772 3.17989H177.37L180.668 16.4319C180.848 16.9715 181.208 16.8516 181.448 16.4319L188.643 3.17989H192.241ZM194.82 13.6136L193.92 19.61H190.562L192.601 5.99819C192.901 4.07935 193.92 3.17989 195.839 3.17989H204.234C207.832 3.17989 208.611 5.09873 208.132 8.27681C207.712 11.1551 206.572 13.6735 203.274 13.6735H200.996V13.7935L206.872 19.61H202.675L197.638 14.2732C196.918 13.4937 196.319 13.6136 194.82 13.6136ZM195.119 11.3949C197.398 11.3949 199.737 11.3949 202.015 11.3949C202.735 11.4549 203.454 11.215 203.934 10.6754C204.354 10.0158 204.594 9.23623 204.654 8.39673C204.833 7.25742 204.714 6.53786 204.354 6.11811C203.814 5.69837 203.214 5.51848 202.555 5.6384H197.158C196.439 5.57844 195.839 6.05815 195.779 6.77771V6.83768L195.119 11.3949ZM212.389 19.61L214.188 7.43732L210.47 10.1357L209.091 19.55L212.389 19.61ZM218.805 19.61H215.447L217.846 3.17989H221.204L220.304 9.41612C220.364 9.35615 220.424 9.35615 220.424 9.29619L228.039 3.17989H232.177L223.542 9.89583C223.062 10.1956 222.703 10.6154 222.523 11.0951C222.463 11.5748 222.703 12.0545 223.302 12.6542L230.618 19.55H226.42L220.064 13.2538C219.944 13.1339 219.824 13.0139 219.764 12.894L218.805 19.61ZM249.986 19.61H246.508L245.309 15.4725H236.794L234.396 19.61H230.858L239.672 4.85888C240.512 3.47971 241.231 3 242.851 3C244.29 3 245.009 3.41975 245.489 4.85888L249.986 19.61ZM244.769 13.2538L242.851 6.59782C242.731 6.11811 242.551 5.93822 242.431 5.93822C242.131 6.05815 241.951 6.298 241.831 6.59782L237.933 13.2538H244.769Z" fill="#019AAC"/>
<path fill-rule="evenodd" clip-rule="evenodd" d="M213.194 6.00872L209.476 8.64724L210.256 3.43018H213.614L213.194 6.00872Z" fill="#F25529"/>
<path d="M159.52 35.6455C158.379 35.6455 157.507 35.2579 156.904 34.4825C156.301 33.699 156 32.5564 156 31.0547C156 29.553 156.301 28.4144 156.904 27.6391C157.507 26.8556 158.379 26.4638 159.52 26.4638C160.654 26.4638 161.522 26.8556 162.125 27.6391C162.735 28.4144 163.041 29.553 163.041 31.0547C163.041 32.5482 162.735 33.6868 162.125 34.4703C161.522 35.2538 160.654 35.6455 159.52 35.6455ZM159.52 34.8253C160.364 34.8253 161.003 34.507 161.437 33.8704C161.879 33.2256 162.101 32.2871 162.101 31.0547C162.101 29.8223 161.879 28.8878 161.437 28.2512C161.003 27.6065 160.364 27.2841 159.52 27.2841C158.668 27.2841 158.025 27.6024 157.591 28.239C157.157 28.8756 156.94 29.8141 156.94 31.0547C156.94 32.2952 157.157 33.2338 157.591 33.8704C158.025 34.507 158.668 34.8253 159.52 34.8253Z" fill="black"/>
<path d="M165.814 35.4864H164.946V28.949H169.865V35.4864H168.985V29.708H165.814V35.4864Z" fill="black"/>
<path d="M176.556 34.9967C176.307 35.2007 176.001 35.3599 175.64 35.4741C175.286 35.5802 174.912 35.6333 174.519 35.6333C173.618 35.6333 172.915 35.3354 172.409 34.7396C171.91 34.1357 171.661 33.295 171.661 32.2177C171.661 31.1404 171.894 30.2997 172.36 29.6958C172.827 29.0918 173.474 28.7899 174.302 28.7899C175.105 28.7899 175.732 29.0674 176.182 29.6223C176.632 30.1692 176.857 30.9404 176.857 31.9361C176.857 32.132 176.845 32.3034 176.821 32.4503H172.541C172.573 33.2256 172.758 33.8133 173.096 34.2132C173.442 34.6049 173.932 34.8008 174.567 34.8008C175.154 34.8008 175.704 34.6294 176.219 34.2866L176.556 34.9967ZM174.277 29.5856C173.763 29.5856 173.361 29.7652 173.072 30.1243C172.79 30.4752 172.622 31.0016 172.565 31.7035H175.989C175.981 31.0343 175.825 30.516 175.519 30.1488C175.222 29.7733 174.808 29.5856 174.277 29.5856Z" fill="black"/>
<path d="M183.705 32.2667C183.705 33.3277 183.48 34.1561 183.03 34.7518C182.58 35.3476 181.949 35.6455 181.137 35.6455C180.808 35.6455 180.499 35.5802 180.209 35.4497C179.928 35.3191 179.683 35.1354 179.474 34.8988V38.0205H178.606V28.949H179.413V29.7815C179.63 29.455 179.896 29.2102 180.209 29.047C180.531 28.8756 180.888 28.7899 181.282 28.7899C182.038 28.7899 182.628 29.0959 183.054 29.708C183.488 30.3202 183.705 31.173 183.705 32.2667ZM182.801 32.2667C182.801 31.4097 182.653 30.7609 182.355 30.3202C182.066 29.8713 181.636 29.6468 181.065 29.6468C180.752 29.6468 180.466 29.7121 180.209 29.8427C179.952 29.9651 179.707 30.1651 179.474 30.4426V34.0785C179.675 34.3152 179.924 34.5029 180.221 34.6417C180.519 34.7723 180.824 34.8375 181.137 34.8375C181.684 34.8375 182.098 34.6213 182.379 34.1887C182.661 33.7561 182.801 33.1155 182.801 32.2667Z" fill="black"/>
<path d="M188.854 34.6906C188.436 35.3109 187.789 35.621 186.912 35.621C186.278 35.621 185.779 35.4497 185.417 35.1069C185.064 34.7641 184.887 34.2866 184.887 33.6745C184.887 32.8992 185.2 32.3279 185.827 31.9606C186.462 31.5852 187.451 31.3934 188.793 31.3852V30.9323C188.793 30.5079 188.661 30.1855 188.395 29.9651C188.138 29.7366 187.76 29.6223 187.262 29.6223C186.74 29.6223 186.233 29.7407 185.743 29.9774L185.514 29.2306C186.085 28.9368 186.699 28.7899 187.359 28.7899C188.05 28.7899 188.604 28.9653 189.022 29.3163C189.448 29.6672 189.661 30.1814 189.661 30.8588V35.4864H188.854V34.6906ZM188.793 32.1198C187.756 32.1279 186.993 32.2544 186.503 32.4993C186.012 32.736 185.767 33.1073 185.767 33.6133C185.767 34.0051 185.88 34.303 186.105 34.507C186.33 34.711 186.663 34.8131 187.105 34.8131C187.451 34.8131 187.76 34.7478 188.034 34.6172C188.307 34.4866 188.56 34.2866 188.793 34.0173V32.1198Z" fill="black"/>
<path d="M197.498 34.7274V37.2982H196.799L196.63 35.4864H191.844V28.949H192.712V34.7274H195.702V28.949H196.57V34.7274H197.498Z" fill="black"/>
<path d="M200.006 34.0418L203.297 28.949H204.165V35.4864H203.297V30.3814L200.006 35.4864H199.138V28.949H200.006V34.0418Z" fill="black"/>
<path d="M208.65 35.6455C207.798 35.6455 207.139 35.3558 206.673 34.7763C206.215 34.1887 205.986 33.3399 205.986 32.2299C205.986 31.1037 206.215 30.2508 206.673 29.6713C207.131 29.0837 207.79 28.7899 208.65 28.7899C209.502 28.7899 210.157 29.0837 210.615 29.6713C211.073 30.2508 211.302 31.0996 211.302 32.2177C211.302 33.3358 211.073 34.1887 210.615 34.7763C210.157 35.3558 209.502 35.6455 208.65 35.6455ZM208.65 34.8498C209.221 34.8498 209.655 34.6294 209.952 34.1887C210.25 33.7398 210.398 33.0828 210.398 32.2177C210.398 31.3526 210.25 30.6997 209.952 30.2589C209.655 29.8101 209.221 29.5856 208.65 29.5856C208.071 29.5856 207.633 29.8101 207.336 30.2589C207.039 30.6997 206.89 31.3567 206.89 32.2299C206.89 33.0869 207.039 33.7398 207.336 34.1887C207.633 34.6294 208.071 34.8498 208.65 34.8498Z" fill="black"/>
<path d="M217.958 35.4864H217.09V32.5605H213.991V35.4864H213.123V28.949H213.991V31.7647H217.09V28.949H217.958V35.4864Z" fill="black"/>
<path d="M225.059 35.4864H224.191V32.5605H221.092V35.4864H220.224V28.949H221.092V31.7647H224.191V28.949H225.059V35.4864Z" fill="black"/>
<path d="M227.325 28.949H228.193V31.3118H229.496C231.063 31.3118 231.847 32.0014 231.847 33.3807C231.847 34.0663 231.625 34.5886 231.183 34.9477C230.749 35.3068 230.199 35.4864 229.532 35.4864H227.325V28.949ZM233.715 28.949V35.4864H232.847V28.949H233.715ZM228.193 34.7274H229.496C229.938 34.7274 230.287 34.6172 230.544 34.3968C230.81 34.1683 230.942 33.8296 230.942 33.3807C230.942 32.5156 230.472 32.083 229.532 32.083H228.193V34.7274Z" fill="black"/>
<path d="M236.85 34.0418L240.141 28.949H241.009V35.4864H240.141V30.3814L236.85 35.4864H235.982V28.949H236.85V34.0418ZM238.622 27.9207C237.481 27.9207 236.842 27.3534 236.705 26.219H237.356C237.421 26.5291 237.553 26.7617 237.754 26.9168C237.963 27.0719 238.256 27.1494 238.634 27.1494C238.988 27.1494 239.273 27.0719 239.49 26.9168C239.715 26.7536 239.86 26.521 239.924 26.219H240.539C240.475 26.774 240.278 27.1984 239.948 27.4922C239.619 27.7778 239.177 27.9207 238.622 27.9207Z" fill="black"/>
<path d="M246.929 35.4864H246.061V28.949H250.98V35.4864H250.1V29.708H246.929V35.4864Z" fill="black"/>
<path d="M256.574 34.6906C256.156 35.3109 255.509 35.621 254.633 35.621C253.998 35.621 253.5 35.4497 253.138 35.1069C252.784 34.7641 252.608 34.2866 252.608 33.6745C252.608 32.8992 252.921 32.3279 253.548 31.9606C254.183 31.5852 255.172 31.3934 256.514 31.3852V30.9323C256.514 30.5079 256.381 30.1855 256.116 29.9651C255.859 29.7366 255.481 29.6223 254.983 29.6223C254.46 29.6223 253.954 29.7407 253.464 29.9774L253.234 29.2306C253.805 28.9368 254.42 28.7899 255.079 28.7899C255.77 28.7899 256.325 28.9653 256.743 29.3163C257.169 29.6672 257.382 30.1814 257.382 30.8588V35.4864H256.574V34.6906ZM256.514 32.1198C255.477 32.1279 254.713 32.2544 254.223 32.4993C253.733 32.736 253.488 33.1073 253.488 33.6133C253.488 34.0051 253.6 34.303 253.825 34.507C254.05 34.711 254.384 34.8131 254.826 34.8131C255.172 34.8131 255.481 34.7478 255.754 34.6172C256.028 34.4866 256.281 34.2866 256.514 34.0173V32.1198Z" fill="black"/>
<path d="M264.664 32.2667C264.664 33.3277 264.439 34.1561 263.989 34.7518C263.539 35.3476 262.908 35.6455 262.096 35.6455C261.766 35.6455 261.457 35.5802 261.168 35.4497C260.886 35.3191 260.641 35.1354 260.432 34.8988V38.0205H259.564V28.949H260.372V29.7815C260.589 29.455 260.854 29.2102 261.168 29.047C261.489 28.8756 261.847 28.7899 262.241 28.7899C262.996 28.7899 263.587 29.0959 264.013 29.708C264.447 30.3202 264.664 31.173 264.664 32.2667ZM263.76 32.2667C263.76 31.4097 263.611 30.7609 263.314 30.3202C263.024 29.8713 262.594 29.6468 262.024 29.6468C261.71 29.6468 261.425 29.7121 261.168 29.8427C260.91 29.9651 260.665 30.1651 260.432 30.4426V34.0785C260.633 34.3152 260.882 34.5029 261.18 34.6417C261.477 34.7723 261.782 34.8375 262.096 34.8375C262.642 34.8375 263.056 34.6213 263.338 34.1887C263.619 33.7561 263.76 33.1155 263.76 32.2667Z" fill="black"/>
<path d="M268.377 35.4864H267.509V29.708H265.713V28.949H270.186V29.708H268.377V35.4864Z" fill="black"/>
<path d="M276.515 35.4864H275.647V32.5605H272.549V35.4864H271.681V28.949H272.549V31.7647H275.647V28.949H276.515V35.4864Z" fill="black"/>
<path d="M283.207 34.9967C282.957 35.2007 282.652 35.3599 282.29 35.4741C281.937 35.5802 281.563 35.6333 281.169 35.6333C280.269 35.6333 279.566 35.3354 279.059 34.7396C278.561 34.1357 278.312 33.295 278.312 32.2177C278.312 31.1404 278.545 30.2997 279.011 29.6958C279.477 29.0918 280.124 28.7899 280.952 28.7899C281.756 28.7899 282.383 29.0674 282.833 29.6223C283.283 30.1692 283.508 30.9404 283.508 31.9361C283.508 32.132 283.496 32.3034 283.472 32.4503H279.192C279.224 33.2256 279.409 33.8133 279.746 34.2132C280.092 34.6049 280.582 34.8008 281.217 34.8008C281.804 34.8008 282.355 34.6294 282.869 34.2866L283.207 34.9967ZM280.928 29.5856C280.414 29.5856 280.012 29.7652 279.722 30.1243C279.441 30.4752 279.272 31.0016 279.216 31.7035H282.64C282.632 31.0343 282.475 30.516 282.17 30.1488C281.872 29.7733 281.458 29.5856 280.928 29.5856Z" fill="black"/>
<path d="M290.356 32.2667C290.356 33.3277 290.131 34.1561 289.681 34.7518C289.231 35.3476 288.6 35.6455 287.788 35.6455C287.458 35.6455 287.149 35.5802 286.86 35.4497C286.578 35.3191 286.333 35.1354 286.124 34.8988V38.0205H285.256V28.949H286.064V29.7815C286.281 29.455 286.546 29.2102 286.86 29.047C287.181 28.8756 287.539 28.7899 287.933 28.7899C288.688 28.7899 289.279 29.0959 289.705 29.708C290.139 30.3202 290.356 31.173 290.356 32.2667ZM289.452 32.2667C289.452 31.4097 289.303 30.7609 289.006 30.3202C288.716 29.8713 288.286 29.6468 287.716 29.6468C287.402 29.6468 287.117 29.7121 286.86 29.8427C286.602 29.9651 286.357 30.1651 286.124 30.4426V34.0785C286.325 34.3152 286.574 34.5029 286.872 34.6417C287.169 34.7723 287.475 34.8375 287.788 34.8375C288.335 34.8375 288.748 34.6213 289.03 34.1887C289.311 33.7561 289.452 33.1155 289.452 32.2667Z" fill="black"/>
</svg>
