<svg width="141" height="48" viewBox="0 0 141 48" fill="none" xmlns="http://www.w3.org/2000/svg">
<path d="M6.01504 8.6781C5.91867 8.2807 5.93473 7.88329 5.98291 7.66075C6.11141 7.0408 6.52901 6.37317 7.76577 6.37317C8.92221 6.37317 9.58074 7.07259 9.58074 8.13763V9.32984H14.4635V7.96277C14.4956 3.75032 10.6408 3.08268 7.8782 3.08268C4.40886 3.06679 1.56594 4.2113 1.0359 7.35872C0.891344 8.23301 0.85922 8.99602 1.08408 9.96568C1.93536 13.9079 8.90615 15.0524 9.91804 17.5481C10.1268 18.025 10.0465 18.6131 9.96623 18.9946C9.82167 19.6464 9.35588 20.314 8.05488 20.314C6.81813 20.314 6.09535 19.6146 6.09535 18.5496V16.6897H0.811035V18.1839C0.811035 22.4918 4.26431 23.7953 7.92639 23.7953C11.5885 23.7953 14.3671 22.603 14.849 19.3761C15.0739 17.7071 14.8972 16.6261 14.8169 16.2287C14.0138 12.1434 6.56114 10.9512 6.01504 8.69399V8.6781ZM69.732 8.70989C69.6516 8.34428 69.6838 7.91509 69.6998 7.72433C69.8444 7.10439 70.2459 6.43675 71.4827 6.43675C72.607 6.43675 73.2655 7.13618 73.2655 8.16942V9.36163H78.1001V8.02636C78.1001 3.8298 74.3256 3.19396 71.5951 3.19396C68.1418 3.19396 65.331 4.30668 64.801 7.4382C64.6725 8.28069 64.6243 9.04371 64.8492 10.0134C65.6844 13.9079 72.5749 15.0524 73.5707 17.5322C73.7474 18.0091 73.6992 18.5972 73.6028 18.947C73.4583 19.5987 73.0246 20.2345 71.7236 20.2345C70.519 20.2345 69.7641 19.5351 69.7641 18.5019V16.642H64.5601V18.1045C64.5601 22.3646 67.9491 23.6681 71.5951 23.6681C75.2411 23.6681 77.9877 22.4759 78.4374 19.2967C78.6623 17.6276 78.4856 16.5625 78.4053 16.1651C77.6183 12.1434 70.2781 10.9512 69.732 8.69399V8.70989ZM114.207 19.249L109.597 3.68673H102.321V22.8097H107.124L106.851 6.75467L111.798 22.8097H118.768V3.68673H113.934L114.191 19.2331L114.207 19.249ZM21.7877 3.68673L18.1417 22.8471H23.426L26.1565 5.13327L28.8227 22.863H34.0749L30.4931 3.68673H21.7877ZM51.3734 3.68673L48.9159 18.788L46.4424 3.68673H38.4437L38.01 22.8471H42.9088L43.0373 5.11738L46.4103 22.8471H51.3573L54.7303 5.11738L54.8588 22.8471H59.7576L59.3239 3.68673H51.3573H51.3734ZM96.8923 3.68673H91.9453V17.9773C91.9453 18.2316 91.9453 18.5019 91.8971 18.7244C91.8008 19.2013 91.3992 20.1392 90.0179 20.1392C88.6366 20.1392 88.2511 19.2172 88.1548 18.7244C88.1066 18.5337 88.1066 18.2316 88.1066 17.9773V3.68673H83.1596V17.5322C83.1596 17.8819 83.1917 18.629 83.2078 18.8039C83.5611 22.3964 86.4201 23.5886 90.0179 23.5886C93.6158 23.5886 96.5069 22.4282 96.8602 18.8039C96.8923 18.6131 96.9405 17.8819 96.9084 17.5322V3.68673H96.8923ZM130.895 12.1434V14.9729H132.903V17.7706C132.903 18.025 132.903 18.2952 132.855 18.5178C132.774 19.0423 132.276 19.9325 130.847 19.9325C129.417 19.9325 128.936 19.0423 128.855 18.5178C128.823 18.2952 128.807 18.025 128.807 17.7706V8.94833C128.807 8.63041 128.839 8.29659 128.903 8.02636C129 7.54948 129.433 6.6434 130.847 6.6434C132.357 6.6434 132.71 7.61306 132.806 8.02636C132.855 8.29659 132.855 8.77347 132.855 8.77347V9.83851H137.786V9.18677C137.786 9.18677 137.818 8.51914 137.753 7.89919C137.384 4.30668 134.332 3.16216 130.863 3.16216C127.394 3.16216 124.422 4.32258 123.989 7.93098C123.94 8.2489 123.892 8.85295 123.892 9.21856V17.3256C123.892 17.6753 123.892 17.9455 123.972 18.5972C124.294 22.1262 127.394 23.3661 130.863 23.3661C134.332 23.3661 137.432 22.1262 137.753 18.5972C137.802 17.9455 137.834 17.6753 137.834 17.3256V12.1434H130.895Z" fill="black"/>
<path d="M10.4856 36.9197C10.4856 38.1122 10.1307 39.0398 9.4208 39.7023C8.71094 40.3554 7.70767 40.7198 6.411 40.7955V42.2294H5.41719V40.7955C4.13944 40.7103 3.15037 40.3412 2.44997 39.6881C1.75904 39.0256 1.41357 38.1028 1.41357 36.9197C1.41357 35.7366 1.75904 34.8185 2.44997 34.1654C3.15037 33.5029 4.13944 33.129 5.41719 33.0438V31.6951H6.411V33.0438C7.70767 33.1196 8.71094 33.4887 9.4208 34.1512C10.1307 34.8043 10.4856 35.7271 10.4856 36.9197ZM6.411 39.8869C7.36694 39.8112 8.10993 39.5272 8.63996 39.0351C9.16999 38.5334 9.435 37.833 9.435 36.9339C9.435 36.0347 9.16999 35.3343 8.63996 34.8327C8.10993 34.3216 7.36694 34.0282 6.411 33.9525V39.8869ZM2.44997 36.9339C2.44997 37.8141 2.70552 38.505 3.21662 39.0067C3.73719 39.5083 4.47071 39.797 5.41719 39.8727V33.9667C4.47071 34.0424 3.73719 34.3358 3.21662 34.8469C2.70552 35.3485 2.44997 36.0442 2.44997 36.9339Z" fill="black"/>
<path d="M13.6374 40.4264L17.5132 34.5203H18.5354V42.1017H17.5132V36.1814L13.6374 42.1017H12.6152V34.5203H13.6374V40.4264Z" fill="black"/>
<path d="M27.2099 38.3678C27.2099 39.5982 26.9449 40.5589 26.4149 41.2498C25.8848 41.9408 25.1419 42.2862 24.1859 42.2862C23.7979 42.2862 23.4335 42.2105 23.0927 42.0591C22.7615 41.9076 22.4728 41.6947 22.2267 41.4202V45.0405H21.2045V34.5203H22.1557V35.4858C22.4113 35.1072 22.7236 34.8232 23.0927 34.6339C23.4713 34.4352 23.8925 34.3358 24.3563 34.3358C25.246 34.3358 25.9416 34.6907 26.4433 35.4006C26.9544 36.1104 27.2099 37.0995 27.2099 38.3678ZM26.1451 38.3678C26.1451 37.374 25.97 36.6215 25.6198 36.1104C25.2791 35.5899 24.7727 35.3296 24.1007 35.3296C23.7316 35.3296 23.3956 35.4053 23.0927 35.5567C22.7899 35.6987 22.5012 35.9306 22.2267 36.2524V40.469C22.4633 40.7435 22.7567 40.9612 23.1069 41.1221C23.4571 41.2735 23.8168 41.3492 24.1859 41.3492C24.8295 41.3492 25.317 41.0984 25.6482 40.5968C25.9795 40.0951 26.1451 39.3521 26.1451 38.3678Z" fill="black"/>
<path d="M36.793 42.1017H35.8276V36.0253L33.4709 40.6961H32.5907L30.3049 36.0253V42.1017H29.3537V34.5203H30.5889L33.045 39.5178L35.5579 34.5203H36.793V42.1017Z" fill="black"/>
<path d="M44.6725 41.5338C44.3791 41.7704 44.0194 41.955 43.5935 42.0875C43.1771 42.2105 42.7369 42.272 42.2732 42.272C41.2131 42.272 40.3849 41.9266 39.7887 41.2356C39.2018 40.5352 38.9084 39.5604 38.9084 38.311C38.9084 37.0617 39.1829 36.0868 39.7319 35.3864C40.2808 34.686 41.0427 34.3358 42.0176 34.3358C42.9641 34.3358 43.7024 34.6576 44.2324 35.3012C44.7624 35.9353 45.0274 36.8298 45.0274 37.9845C45.0274 38.2116 45.0132 38.4104 44.9848 38.5808H39.9448C39.9827 39.4799 40.2004 40.1614 40.5979 40.6252C41.0049 41.0795 41.5822 41.3066 42.33 41.3066C43.0209 41.3066 43.6692 41.1079 44.275 40.7103L44.6725 41.5338ZM41.9892 35.2586C41.3835 35.2586 40.9102 35.4668 40.5695 35.8833C40.2382 36.2903 40.0395 36.9007 39.9732 37.7147H44.0052C43.9958 36.9386 43.8112 36.3376 43.4515 35.9117C43.1013 35.4763 42.6139 35.2586 41.9892 35.2586Z" fill="black"/>
<path d="M52.7791 42.1017H51.7569V38.7085H48.1082V42.1017H47.086V34.5203H48.1082V37.7857H51.7569V34.5203H52.7791V42.1017Z" fill="black"/>
<path d="M61.1413 42.1017H60.1191V38.7085H56.4704V42.1017H55.4482V34.5203H56.4704V37.7857H60.1191V34.5203H61.1413V42.1017Z" fill="black"/>
<path d="M63.8104 34.5203H64.8325V37.2604H66.3659C68.2115 37.2604 69.1343 38.0602 69.1343 39.6597C69.1343 40.4548 68.874 41.0605 68.3535 41.477C67.8424 41.8934 67.194 42.1017 66.4084 42.1017H63.8104V34.5203ZM71.3349 34.5203V42.1017H70.3127V34.5203H71.3349ZM64.8325 41.2214H66.3659C66.8864 41.2214 67.2981 41.0937 67.601 40.8381C67.9133 40.5731 68.0695 40.1803 68.0695 39.6597C68.0695 38.6565 67.5158 38.1548 66.4084 38.1548H64.8325V41.2214Z" fill="black"/>
<path d="M75.0261 40.4264L78.902 34.5203H79.9242V42.1017H78.902V36.1814L75.0261 42.1017H74.004V34.5203H75.0261V40.4264ZM77.1131 33.3278C75.7691 33.3278 75.0167 32.67 74.8558 31.3544H75.6224C75.6982 31.714 75.8543 31.9838 76.0909 32.1636C76.337 32.3434 76.6825 32.4334 77.1273 32.4334C77.5438 32.4334 77.8798 32.3434 78.1353 32.1636C78.4004 31.9743 78.5707 31.7046 78.6464 31.3544H79.3705C79.2948 31.998 79.0629 32.4901 78.6748 32.8309C78.2868 33.1621 77.7662 33.3278 77.1131 33.3278Z" fill="black"/>
<path d="M93.3122 42.1017H92.3468V36.0253L89.99 40.6961H89.1098L86.824 36.0253V42.1017H85.8728V34.5203H87.108L89.5641 39.5178L92.077 34.5203H93.3122V42.1017Z" fill="black"/>
<path d="M99.8997 41.1788C99.4075 41.8982 98.6456 42.2578 97.6139 42.2578C96.8662 42.2578 96.2794 42.0591 95.8535 41.6615C95.437 41.264 95.2288 40.7103 95.2288 40.0005C95.2288 39.1013 95.5979 38.4388 96.3362 38.0129C97.0839 37.5775 98.2481 37.3551 99.8287 37.3456V36.8203C99.8287 36.3281 99.6725 35.9543 99.3602 35.6987C99.0573 35.4337 98.6125 35.3012 98.0256 35.3012C97.4104 35.3012 96.8141 35.4384 96.2368 35.7129L95.967 34.8469C96.639 34.5062 97.3631 34.3358 98.1392 34.3358C98.9532 34.3358 99.6063 34.5393 100.098 34.9463C100.6 35.3533 100.851 35.9495 100.851 36.7351V42.1017H99.8997V41.1788ZM99.8287 38.1974C98.6077 38.2069 97.7086 38.3536 97.1312 38.6375C96.5539 38.912 96.2652 39.3427 96.2652 39.9295C96.2652 40.3838 96.3977 40.7293 96.6627 40.9659C96.9277 41.2025 97.3205 41.3208 97.8411 41.3208C98.2481 41.3208 98.6125 41.2451 98.9343 41.0937C99.2561 40.9422 99.5542 40.7103 99.8287 40.398V38.1974Z" fill="black"/>
<path d="M103.421 34.5203H107.864V35.4006H104.443V42.1017H103.421V34.5203Z" fill="black"/>
<path d="M113.472 41.1788C112.98 41.8982 112.218 42.2578 111.186 42.2578C110.439 42.2578 109.852 42.0591 109.426 41.6615C109.01 41.264 108.801 40.7103 108.801 40.0005C108.801 39.1013 109.17 38.4388 109.909 38.0129C110.656 37.5775 111.821 37.3551 113.401 37.3456V36.8203C113.401 36.3281 113.245 35.9543 112.933 35.6987C112.63 35.4337 112.185 35.3012 111.598 35.3012C110.983 35.3012 110.387 35.4384 109.809 35.7129L109.54 34.8469C110.212 34.5062 110.936 34.3358 111.712 34.3358C112.526 34.3358 113.179 34.5393 113.671 34.9463C114.173 35.3533 114.423 35.9495 114.423 36.7351V42.1017H113.472V41.1788ZM113.401 38.1974C112.18 38.2069 111.281 38.3536 110.704 38.6375C110.126 38.912 109.838 39.3427 109.838 39.9295C109.838 40.3838 109.97 40.7293 110.235 40.9659C110.5 41.2025 110.893 41.3208 111.414 41.3208C111.821 41.3208 112.185 41.2451 112.507 41.0937C112.829 40.9422 113.127 40.7103 113.401 40.398V38.1974Z" fill="black"/>
<path d="M119.833 38.0839C120.817 38.3773 121.309 39.0019 121.309 39.9579C121.309 40.7056 121.03 41.2782 120.471 41.6757C119.913 42.0733 119.18 42.272 118.271 42.272C117.835 42.272 117.414 42.2294 117.007 42.1443C116.6 42.0591 116.241 41.9266 115.928 41.7467L116.297 40.9233C116.553 41.0558 116.846 41.1599 117.178 41.2356C117.509 41.3114 117.831 41.3492 118.143 41.3492C118.834 41.3492 119.355 41.2309 119.705 40.9943C120.064 40.7482 120.244 40.3838 120.244 39.9011C120.244 39.0682 119.615 38.6517 118.356 38.6517H117.192V37.7857H118.342C118.825 37.7857 119.217 37.6816 119.52 37.4734C119.833 37.2557 119.989 36.9386 119.989 36.5222C119.989 36.0678 119.828 35.7413 119.506 35.5425C119.194 35.3438 118.787 35.2444 118.285 35.2444C117.783 35.2444 117.201 35.3864 116.539 35.6703L116.255 34.8185C116.529 34.6765 116.861 34.5582 117.249 34.4636C117.646 34.3689 118.03 34.3216 118.399 34.3216C119.175 34.3216 119.804 34.492 120.287 34.8327C120.779 35.1734 121.025 35.6845 121.025 36.366C121.025 36.7919 120.921 37.1468 120.713 37.4308C120.514 37.7053 120.221 37.9229 119.833 38.0839Z" fill="black"/>
<path d="M124.347 40.4264L128.223 34.5203H129.245V42.1017H128.223V36.1814L124.347 42.1017H123.325V34.5203H124.347V40.4264Z" fill="black"/>
<path d="M137.607 42.1017H136.585V38.7085H132.937V42.1017H131.914V34.5203H132.937V37.7857H136.585V34.5203H137.607V42.1017Z" fill="black"/>
</svg>
